<svg xmlns="http://www.w3.org/2000/svg" width="1600" height="500" viewBox="0 0 1600 500" fill="none">
  <defs>
    <linearGradient id="g" x1="0" y1="0" x2="0" y2="500" gradientUnits="userSpaceOnUse">
      <stop stop-color="#0b3b1f" stop-opacity=".55"/>
      <stop offset=".6" stop-color="#0b3b1f" stop-opacity=".16"/>
      <stop offset="1" stop-color="#0b3b1f" stop-opacity="0"/>
    </linearGradient>
    <filter id="soft" x="-20%" y="-20%" width="140%" height="140%">
      <feGaussianBlur stdDeviation="10"/>
    </filter>
    <filter id="grain" x="-10%" y="-10%" width="120%" height="120%">
      <feTurbulence type="fractalNoise" baseFrequency="0.8" numOctaves="2" stitchTiles="stitch" result="n"/>
      <feColorMatrix in="n" type="matrix"
        values="0 0 0 0 0
                0 0 0 0 0
                0 0 0 0 0
                0 0 0 .14 0" result="a"/>
      <feComposite in="a" in2="SourceGraphic" operator="over"/>
    </filter>
  </defs>

  <g filter="url(#grain)" opacity=".95">
    <path d="M0 180c110-80 220-120 340-120 140 0 220 70 320 90 120 24 190-22 270-54s200-36 310 22c100 52 180 94 360 110V0H0v180Z" fill="#062116"/>
    <path d="M0 220c130-60 240-90 360-90 130 0 220 50 300 70 110 28 200-20 280-50s190-30 280 18c90 46 170 80 380 92V0H0v220Z" fill="#0a2a18" opacity=".85"/>
    <path d="M0 260c150-46 270-68 380-68 110 0 220 36 300 54 120 26 210-20 290-46s190-24 280 18c80 38 170 66 350 76V0H0v260Z" fill="#0e341f" opacity=".7"/>
  </g>

  <g filter="url(#soft)" opacity=".9">
    <path d="M-40 110c220-120 460-120 700-10 250 110 520 110 980 14v200H-40V110Z" fill="url(#g)"/>
  </g>
</svg>
