<svg xmlns="http://www.w3.org/2000/svg" width="260" height="260" viewBox="0 0 260 260" fill="none">
  <defs>
    <linearGradient id="lg" x1="38" y1="34" x2="212" y2="236" gradientUnits="userSpaceOnUse">
      <stop stop-color="#d8ff9c"/>
      <stop offset=".38" stop-color="#5bd46a"/>
      <stop offset=".72" stop-color="#2e7d32"/>
      <stop offset="1" stop-color="#174a22"/>
    </linearGradient>
    <radialGradient id="hl" cx="0" cy="0" r="1" gradientUnits="userSpaceOnUse" gradientTransform="translate(120 106) rotate(125) scale(160 190)">
      <stop stop-color="#ffffff" stop-opacity=".55"/>
      <stop offset=".55" stop-color="#ffffff" stop-opacity=".10"/>
      <stop offset="1" stop-color="#ffffff" stop-opacity="0"/>
    </radialGradient>
    <filter id="ds" x="-30%" y="-30%" width="160%" height="160%">
      <feDropShadow dx="0" dy="12" stdDeviation="10" flood-color="#062a14" flood-opacity=".22"/>
    </filter>
  </defs>

  <g filter="url(#ds)">
    <path d="M220 46c-58 2-106 24-142 60-36 36-56 82-52 138 46 4 88-10 126-48 38-38 62-86 68-150Z" fill="url(#lg)"/>
    <path d="M212 56c-50 6-92 26-124 58-32 33-50 74-52 124" stroke="#0b3b1f" stroke-width="10" stroke-linecap="round" opacity=".95"/>

    <path d="M98 120c18 12 34 28 46 46" stroke="#0b3b1f" stroke-width="7" stroke-linecap="round" opacity=".42"/>
    <path d="M122 98c12 18 28 34 46 46" stroke="#0b3b1f" stroke-width="7" stroke-linecap="round" opacity=".38"/>
    <path d="M150 82c10 16 22 28 36 38" stroke="#0b3b1f" stroke-width="6" stroke-linecap="round" opacity=".32"/>

    <path d="M222 52c-34 8-66 30-90 56-26 28-40 62-44 100 36-2 66-16 92-42 26-26 42-56 52-114Z" fill="url(#hl)" opacity=".65"/>
  </g>
</svg>
