<svg xmlns="http://www.w3.org/2000/svg" width="140" height="92" viewBox="0 0 140 92" fill="none">
  <defs>
    <linearGradient id="p" x1="18" y1="8" x2="122" y2="84" gradientUnits="userSpaceOnUse">
      <stop stop-color="#d2a26f"/>
      <stop offset=".55" stop-color="#a8744d"/>
      <stop offset="1" stop-color="#7a4e34"/>
    </linearGradient>
    <linearGradient id="h" x1="30" y1="14" x2="96" y2="70" gradientUnits="userSpaceOnUse">
      <stop stop-color="#ffffff" stop-opacity=".52"/>
      <stop offset="1" stop-color="#ffffff" stop-opacity="0"/>
    </linearGradient>
  </defs>
  <path d="M86 6c-18 0-30 8-40 18S24 48 24 62c0 16 16 26 42 26 30 0 56-14 64-36 8-22-6-46-44-46Z" fill="url(#p)"/>
  <path d="M90 12c-12 0-22 6-30 14s-14 18-14 30c14 2 28-2 40-14 12-12 18-20 20-30-4 0-10 0-16 0Z" fill="url(#h)" opacity=".55"/>
  <circle cx="58" cy="50" r="3.5" fill="#5d3a27" opacity=".26"/>
  <circle cx="92" cy="42" r="3" fill="#5d3a27" opacity=".24"/>
  <circle cx="84" cy="66" r="3.6" fill="#5d3a27" opacity=".22"/>
</svg>
