<svg xmlns="http://www.w3.org/2000/svg" width="220" height="220" viewBox="0 0 220 220" fill="none">
  <defs>
    <linearGradient id="g1" x1="38" y1="34" x2="180" y2="196" gradientUnits="userSpaceOnUse">
      <stop stop-color="#b8f07b"/>
      <stop offset=".45" stop-color="#3fae4b"/>
      <stop offset="1" stop-color="#1f6b2d"/>
    </linearGradient>
    <linearGradient id="g2" x1="70" y1="46" x2="160" y2="190" gradientUnits="userSpaceOnUse">
      <stop stop-color="#ffffff" stop-opacity=".55"/>
      <stop offset="1" stop-color="#ffffff" stop-opacity="0"/>
    </linearGradient>
    <filter id="sh" x="-30%" y="-30%" width="160%" height="160%">
      <feDropShadow dx="0" dy="10" stdDeviation="10" flood-color="#052413" flood-opacity=".24"/>
    </filter>
  </defs>

  <g filter="url(#sh)">
    <path d="M186 40c-48 2-88 20-117 50C40 120 25 156 28 196c40 3 76-10 105-39 30-30 49-68 53-117Z" fill="url(#g1)"/>
    <path d="M176 50c-40 4-74 20-99 46-25 27-38 60-40 100" stroke="#0b3b1f" stroke-width="9" stroke-linecap="round" opacity=".9"/>
    <path d="M78 106c16 10 29 23 39 39M104 82c10 16 23 29 39 39M130 68c8 14 18 24 30 32" stroke="#0b3b1f" stroke-width="7" stroke-linecap="round" opacity=".45"/>
    <path d="M178 46c-28 6-54 22-74 44-22 24-33 53-36 86 30-2 56-14 78-36 22-22 36-48 44-94Z" fill="url(#g2)" opacity=".5"/>
  </g>
</svg>
