<svg xmlns="http://www.w3.org/2000/svg" width="420" height="420" viewBox="0 0 420 420" fill="none">
  <defs>
    <linearGradient id="t" x1="0" y1="0" x2="420" y2="420" gradientUnits="userSpaceOnUse">
      <stop stop-color="#2e7d32" stop-opacity=".25"/>
      <stop offset="1" stop-color="#8a5a3b" stop-opacity=".20"/>
    </linearGradient>
  </defs>
  <rect width="420" height="420" fill="transparent"/>
  <g opacity=".55">
    <path d="M32 94c26-18 52-18 78 0" stroke="url(#t)" stroke-width="6" stroke-linecap="round"/>
    <path d="M118 74c18 24 18 48 0 72" stroke="url(#t)" stroke-width="6" stroke-linecap="round"/>
    <path d="M58 210c32-12 64-12 96 0" stroke="url(#t)" stroke-width="6" stroke-linecap="round"/>
    <path d="M270 96c26-18 52-18 78 0" stroke="url(#t)" stroke-width="6" stroke-linecap="round"/>
    <path d="M356 76c18 24 18 48 0 72" stroke="url(#t)" stroke-width="6" stroke-linecap="round"/>
    <path d="M248 228c34-14 68-14 102 0" stroke="url(#t)" stroke-width="6" stroke-linecap="round"/>
  </g>
  <g opacity=".35">
    <circle cx="86" cy="334" r="4" fill="#1f6b2d"/>
    <circle cx="118" cy="356" r="3" fill="#1f6b2d"/>
    <circle cx="94" cy="372" r="2.5" fill="#1f6b2d"/>
    <circle cx="298" cy="318" r="4" fill="#7a4e34"/>
    <circle cx="326" cy="346" r="3" fill="#7a4e34"/>
    <circle cx="286" cy="362" r="2.5" fill="#7a4e34"/>
  </g>
</svg>
