<svg xmlns="http://www.w3.org/2000/svg" width="220" height="150" viewBox="0 0 220 150" fill="none">
  <defs>
    <linearGradient id="pg" x1="30" y1="18" x2="196" y2="132" gradientUnits="userSpaceOnUse">
      <stop stop-color="#e6c08b"/>
      <stop offset=".55" stop-color="#b17a52"/>
      <stop offset="1" stop-color="#7a4e34"/>
    </linearGradient>
    <radialGradient id="ph" cx="0" cy="0" r="1" gradientUnits="userSpaceOnUse" gradientTransform="translate(92 46) rotate(135) scale(140 110)">
      <stop stop-color="#ffffff" stop-opacity=".52"/>
      <stop offset=".65" stop-color="#ffffff" stop-opacity=".10"/>
      <stop offset="1" stop-color="#ffffff" stop-opacity="0"/>
    </radialGradient>
    <filter id="pds" x="-30%" y="-30%" width="160%" height="160%">
      <feDropShadow dx="0" dy="10" stdDeviation="10" flood-color="#082818" flood-opacity=".18"/>
    </filter>
  </defs>

  <g filter="url(#pds)">
    <path d="M136 10c-30 0-50 12-66 28C54 54 40 78 40 98c0 26 24 42 62 42 44 0 82-20 94-52 12-32-10-78-60-78Z" fill="url(#pg)"/>
    <path d="M140 18c-22 0-38 10-52 24-14 14-24 32-26 54 26 4 52-4 72-24 18-18 28-30 34-54-8 0-18 0-28 0Z" fill="url(#ph)" opacity=".75"/>
    <circle cx="92" cy="82" r="4.2" fill="#5a3a27" opacity=".28"/>
    <circle cx="146" cy="64" r="3.6" fill="#5a3a27" opacity=".25"/>
    <circle cx="132" cy="110" r="4.6" fill="#5a3a27" opacity=".24"/>
    <circle cx="66" cy="108" r="3.2" fill="#5a3a27" opacity=".18"/>
  </g>
</svg>
