<svg xmlns="http://www.w3.org/2000/svg" width="420" height="260" viewBox="0 0 420 260" fill="none">
  <defs>
    <linearGradient id="soil" x1="40" y1="40" x2="380" y2="240" gradientUnits="userSpaceOnUse">
      <stop stop-color="#b07a4d"/>
      <stop offset="1" stop-color="#8a5a3b"/>
    </linearGradient>
    <linearGradient id="leaf" x1="40" y1="30" x2="200" y2="160" gradientUnits="userSpaceOnUse">
      <stop stop-color="#9be15d"/>
      <stop offset="1" stop-color="#2e7d32"/>
    </linearGradient>
    <filter id="soft" x="-40%" y="-40%" width="180%" height="180%">
      <feGaussianBlur stdDeviation="10"/>
    </filter>
  </defs>

  <g opacity=".95">
    <path d="M272 52c-44 0-78 30-78 80 0 54 42 92 96 86 52-6 90-52 82-102-6-38-42-64-100-64Z" fill="url(#soil)"/>
    <path d="M236 114c6-6 12-8 20-8 10 0 18 6 20 14" stroke="#6b4028" stroke-width="7" stroke-linecap="round" opacity=".35"/>
    <circle cx="246" cy="150" r="6" fill="#6b4028" opacity=".35"/>
    <circle cx="302" cy="116" r="5" fill="#6b4028" opacity=".35"/>
    <circle cx="312" cy="162" r="7" fill="#6b4028" opacity=".35"/>
  </g>

  <g opacity=".55" filter="url(#soft)">
    <path d="M132 82c-42 2-74 18-92 46-18 28-22 58-14 90 40 6 76-4 104-30 28-26 44-58 48-106Z" fill="url(#leaf)"/>
  </g>
</svg>
